<svg width="165" height="100" viewBox="0 0 165 100" fill="none" xmlns="http://www.w3.org/2000/svg">
<g id="2&#231;&#130;&#185;&#229;&#135;&#187;">
<path id="2&#229;&#186;&#149;" d="M0.409912 28.4743C46.1102 16.8397 97.6886 7.33445 153.355 0.310547L153.5 0.312339L164.166 74.008C162.856 74.1643 161.547 74.322 160.239 74.4812C108.956 80.7243 61.038 89.0552 17.8567 99.2047L0.409912 28.4743Z" fill="url(#paint0_linear_1626_83183)"/>
<path id="2&#230;&#143;&#143;&#232;&#190;&#185;" d="M18.1504 98.7248L0.893376 28.764C46.412 17.196 97.7555 7.73805 153.158 0.738635L163.712 73.6594C162.537 73.7998 161.363 73.9414 160.191 74.0841C109.048 80.3102 61.2476 88.6125 18.1504 98.7248Z" stroke="url(#paint1_linear_1626_83183)" stroke-width="0.8"/>
<g id="Group 1321314551">
<mask id="mask0_1626_83183" style="mask-type:alpha" maskUnits="userSpaceOnUse" x="0" y="0" width="165" height="100">
<path id="2&#229;&#186;&#149;_2" d="M0.409912 28.4743C46.1102 16.8397 97.6886 7.33445 153.355 0.310547L153.5 0.312339L164.166 74.008C162.856 74.1643 161.547 74.322 160.239 74.4812C108.956 80.7243 61.038 89.0552 17.8567 99.2047L0.409912 28.4743Z" fill="#D9D9D9"/>
</mask>
<g mask="url(#mask0_1626_83183)">
<g id="Ellipse 220" filter="url(#filter0_f_1626_83183)">
<ellipse cx="67.8649" cy="17.5884" rx="67.8649" ry="17.5884" transform="matrix(0.990738 -0.135789 0.107762 0.994177 28 85.7432)" fill="#00FFE0"/>
</g>
<g id="Ellipse 221" filter="url(#filter1_f_1626_83183)">
<ellipse cx="37.1815" cy="8.19737" rx="37.1815" ry="8.19737" transform="matrix(0.988104 -0.153788 0.125829 0.992052 58.2343 88.1162)" fill="#C6FFFF"/>
</g>
</g>
</g>
</g>
<defs>
<filter id="filter0_f_1626_83183" x="13.8682" y="58.2441" width="166.527" height="71.5393" filterUnits="userSpaceOnUse" color-interpolation-filters="sRGB">
<feFlood flood-opacity="0" result="BackgroundImageFix"/>
<feBlend mode="normal" in="SourceGraphic" in2="BackgroundImageFix" result="shape"/>
<feGaussianBlur stdDeviation="8" result="effect1_foregroundBlur_1626_83183"/>
</filter>
<filter id="filter1_f_1626_83183" x="53.251" y="74.5881" width="85.5079" height="31.8843" filterUnits="userSpaceOnUse" color-interpolation-filters="sRGB">
<feFlood flood-opacity="0" result="BackgroundImageFix"/>
<feBlend mode="normal" in="SourceGraphic" in2="BackgroundImageFix" result="shape"/>
<feGaussianBlur stdDeviation="3" result="effect1_foregroundBlur_1626_83183"/>
</filter>
<linearGradient id="paint0_linear_1626_83183" x1="98.5" y1="111.312" x2="80.8185" y2="16.434" gradientUnits="userSpaceOnUse">
<stop offset="0.161458" stop-color="#2998FF"/>
<stop offset="0.65625" stop-color="#73CBFC" stop-opacity="0"/>
</linearGradient>
<linearGradient id="paint1_linear_1626_83183" x1="82.6632" y1="5.70463" x2="103.199" y2="99.0487" gradientUnits="userSpaceOnUse">
<stop offset="0.386751" stop-color="white" stop-opacity="0"/>
<stop offset="0.930722" stop-color="white"/>
</linearGradient>
</defs>
</svg>
