<svg width="156" height="87" viewBox="0 0 156 87" fill="none" xmlns="http://www.w3.org/2000/svg">
<g id="5&#231;&#130;&#185;&#229;&#135;&#187;">
<path id="3&#229;&#186;&#149;" d="M155.575 12.4282C153.046 12.1076 150.508 11.7921 147.963 11.4818C102.011 5.88027 53.9347 2.03024 4.89986 0L0.280731 74.8297C49.7285 76.7669 98.2393 80.5477 144.623 86.1024L155.575 12.4282Z" fill="url(#paint0_linear_1626_83162)"/>
<g id="&#229;&#133;&#137;">
<mask id="mask0_1626_83162" style="mask-type:alpha" maskUnits="userSpaceOnUse" x="0" y="0" width="156" height="87">
<path id="3&#229;&#186;&#149;_2" d="M155.575 12.4282C153.046 12.1076 150.508 11.7921 147.963 11.4818C102.011 5.88027 53.9347 2.03024 4.89986 0L0.280731 74.8297C49.7285 76.7669 98.2393 80.5477 144.623 86.1024L155.575 12.4282Z" fill="white"/>
</mask>
<g mask="url(#mask0_1626_83162)">
<g id="Ellipse 220" filter="url(#filter0_f_1626_83162)">
<ellipse cx="67.8649" cy="17.5884" rx="67.8649" ry="17.5884" transform="matrix(-0.998797 -0.0490387 -0.0208194 0.999783 136.004 71.9688)" fill="#00FFE0"/>
</g>
<g id="Ellipse 221" filter="url(#filter1_f_1626_83162)">
<ellipse cx="37.1815" cy="8.19737" rx="37.1815" ry="8.19737" transform="matrix(-0.99774 -0.0671992 -0.0390026 0.999239 106.004 75.9688)" fill="#C6FFFF"/>
</g>
</g>
</g>
<path id="3&#230;&#143;&#143;&#232;&#190;&#185;" d="M144.285 85.6591L155.119 12.7737C152.725 12.4708 150.323 12.1725 147.914 11.8788C102.097 6.29361 54.1642 2.44999 5.27495 0.415912L0.705185 74.4461C49.8844 76.3831 98.1343 80.1435 144.285 85.6591Z" stroke="url(#paint1_linear_1626_83162)" stroke-width="0.8"/>
</g>
<defs>
<filter id="filter0_f_1626_83162" x="-15.9298" y="52.3254" width="167.568" height="67.7998" filterUnits="userSpaceOnUse" color-interpolation-filters="sRGB">
<feFlood flood-opacity="0" result="BackgroundImageFix"/>
<feBlend mode="normal" in="SourceGraphic" in2="BackgroundImageFix" result="shape"/>
<feGaussianBlur stdDeviation="8" result="effect1_foregroundBlur_1626_83162"/>
</filter>
<filter id="filter1_f_1626_83162" x="25.4878" y="67.0952" width="86.1978" height="29.1321" filterUnits="userSpaceOnUse" color-interpolation-filters="sRGB">
<feFlood flood-opacity="0" result="BackgroundImageFix"/>
<feBlend mode="normal" in="SourceGraphic" in2="BackgroundImageFix" result="shape"/>
<feGaussianBlur stdDeviation="3" result="effect1_foregroundBlur_1626_83162"/>
</filter>
<linearGradient id="paint0_linear_1626_83162" x1="70.504" y1="100.812" x2="78.004" y2="13.8125" gradientUnits="userSpaceOnUse">
<stop offset="0.161458" stop-color="#2998FF"/>
<stop offset="0.65625" stop-color="#73CBFC" stop-opacity="0"/>
</linearGradient>
<linearGradient id="paint1_linear_1626_83162" x1="77.5721" y1="4.69637" x2="70.504" y2="98.3125" gradientUnits="userSpaceOnUse">
<stop offset="0.386751" stop-color="white" stop-opacity="0"/>
<stop offset="0.930722" stop-color="white"/>
</linearGradient>
</defs>
</svg>
