<svg width="193" height="101" viewBox="0 0 193 101" fill="none" xmlns="http://www.w3.org/2000/svg">
<g id="4&#231;&#130;&#185;&#229;&#135;&#187;">
<path id="4&#229;&#186;&#149;" d="M9.31081 0.116699C21.6594 1.34562 33.8823 2.69675 45.9585 4.16885C98.7938 10.6095 148.052 19.2723 192.23 29.8614L176.466 100.995C136.649 92.1488 93.0774 84.8073 46.7607 79.1688C31.4695 77.3073 15.9433 75.6393 0.224854 74.1671L9.31081 0.116699Z" fill="url(#paint0_linear_1654_84391)"/>
<path id="4&#230;&#143;&#143;&#232;&#190;&#185;" d="M0.672003 73.8073L9.66022 0.553492C21.8736 1.77176 33.9637 3.10964 45.9101 4.56591C98.5803 10.9865 147.692 19.6154 191.755 30.1588L176.162 100.518C136.437 91.7072 92.9855 84.3932 46.809 78.7718C31.647 76.926 16.254 75.2703 0.672003 73.8073Z" stroke="url(#paint1_linear_1654_84391)" stroke-width="0.8"/>
<g id="&#229;&#133;&#137;">
<mask id="mask0_1654_84391" style="mask-type:alpha" maskUnits="userSpaceOnUse" x="0" y="0" width="193" height="101">
<path id="4&#229;&#186;&#149;_2" d="M9.31081 0.116699C21.6594 1.34562 33.8823 2.69675 45.9585 4.16885C98.7938 10.6095 148.052 19.2723 192.23 29.8614L176.466 100.995C136.649 92.1488 93.0774 84.8073 46.7607 79.1688C31.4695 77.3073 15.9433 75.6393 0.224854 74.1671L9.31081 0.116699Z" fill="#D9D9D9"/>
</mask>
<g mask="url(#mask0_1654_84391)">
<g id="Ellipse 220" filter="url(#filter0_f_1654_84391)">
<ellipse cx="67.8649" cy="17.5884" rx="67.8649" ry="17.5884" transform="matrix(-0.984449 -0.175668 -0.147804 0.989017 157.818 90.8438)" fill="#00FFE0"/>
</g>
<g id="Ellipse 221" filter="url(#filter1_f_1654_84391)">
<ellipse cx="37.1815" cy="8.19737" rx="37.1815" ry="8.19737" transform="matrix(-0.984449 -0.175668 -0.147804 0.989017 126.185 86.9141)" fill="#C6FFFF"/>
</g>
</g>
</g>
</g>
<defs>
<filter id="filter0_f_1654_84391" x="5.5481" y="59.2271" width="165.722" height="74.1807" filterUnits="userSpaceOnUse" color-interpolation-filters="sRGB">
<feFlood flood-opacity="0" result="BackgroundImageFix"/>
<feBlend mode="normal" in="SourceGraphic" in2="BackgroundImageFix" result="shape"/>
<feGaussianBlur stdDeviation="8" result="effect1_foregroundBlur_1654_84391"/>
</filter>
<filter id="filter1_f_1654_84391" x="45.7458" y="72.0781" width="85.2476" height="32.8232" filterUnits="userSpaceOnUse" color-interpolation-filters="sRGB">
<feFlood flood-opacity="0" result="BackgroundImageFix"/>
<feBlend mode="normal" in="SourceGraphic" in2="BackgroundImageFix" result="shape"/>
<feGaussianBlur stdDeviation="3" result="effect1_foregroundBlur_1654_84391"/>
</filter>
<linearGradient id="paint0_linear_1654_84391" x1="68" y1="118.5" x2="86" y2="12.5" gradientUnits="userSpaceOnUse">
<stop offset="0.156593" stop-color="#2998FF"/>
<stop offset="0.617343" stop-color="#52B4FD" stop-opacity="0.12"/>
<stop offset="1" stop-color="#73CBFC" stop-opacity="0"/>
</linearGradient>
<linearGradient id="paint1_linear_1654_84391" x1="96.6673" y1="5.619" x2="78.5" y2="94.5" gradientUnits="userSpaceOnUse">
<stop offset="0.386751" stop-color="white" stop-opacity="0"/>
<stop offset="0.930722" stop-color="white"/>
</linearGradient>
</defs>
</svg>
